<svg width="29" height="28" viewBox="0 0 29 28" fill="none" xmlns="http://www.w3.org/2000/svg">
<g clip-path="url(#clip0_21_44)">
<path d="M21.0702 12.8046C16.8749 12.8046 13.4616 16.1699 13.4616 20.3061C13.4616 24.4181 16.8749 27.7626 21.0702 27.7626C25.2656 27.7626 28.6789 24.3973 28.6789 20.2611C28.6789 16.1491 25.2656 12.8046 21.0702 12.8046ZM21.0702 26.6085C17.5211 26.6085 14.6321 23.781 14.6321 20.3061C14.6321 16.8058 17.5211 13.9587 21.0702 13.9587C24.6194 13.9587 27.5084 16.7862 27.5084 20.2611C27.5084 23.7614 24.6194 26.6085 21.0702 26.6085ZM22.6552 21.0066C22.8835 21.2317 22.8835 21.5975 22.6552 21.8226C22.5405 21.9357 22.3906 21.9911 22.2408 21.9911C22.091 21.9911 21.9411 21.9345 21.8264 21.8226L20.6559 20.6685C20.5458 20.56 20.485 20.4134 20.485 20.2599V17.9518C20.485 17.6333 20.7472 17.3747 21.0702 17.3747C21.3933 17.3747 21.6555 17.6333 21.6555 17.9518V20.021L22.6552 21.0066ZM23.4114 2.3729H21.6555V0.641789C21.6555 0.323264 21.3933 0.0647507 21.0702 0.0647507C20.7472 0.0647507 20.485 0.323264 20.485 0.641789V2.3729H8.77928V0.641789C8.77928 0.323264 8.51707 0.0647507 8.19399 0.0647507C7.87092 0.0647507 7.60871 0.323264 7.60871 0.641789V2.3729H5.85286C2.94867 2.3729 0.585297 4.70298 0.585297 7.56625V22.5692C0.585297 25.4325 2.94867 27.7626 5.85286 27.7626H12.8763C13.1993 27.7626 13.4616 27.5041 13.4616 27.1856C13.4616 26.867 13.1993 26.6085 12.8763 26.6085H5.85286C3.59366 26.6085 1.75587 24.7966 1.75587 22.5692V10.4514H27.5084V12.1826C27.5084 12.5011 27.7706 12.7596 28.0937 12.7596C28.4167 12.7596 28.6789 12.5011 28.6789 12.1826V7.56625C28.6789 4.70298 26.3156 2.3729 23.4114 2.3729ZM1.75587 9.29736V7.56625C1.75587 5.33888 3.59366 3.52698 5.85286 3.52698H23.4114C25.6706 3.52698 27.5084 5.33888 27.5084 7.56625V9.29736H1.75587Z" fill="black"/>
</g>
<defs>
<clipPath id="clip0_21_44">
<rect width="28.0936" height="27.6978" fill="white" transform="translate(0.585297 0.0647507)"/>
</clipPath>
</defs>
</svg>
